#!OML:ASF I:\salsa\salsa 7_09\Patient 1\Session 1\dancermale.ASF
:FULLY-SPECIFIED
:DEGREES
1813
root -7.19387 17.1066 3.62065 1453.17 64.3869 364.41
lowerback -8.67479 -2.89727 -9.23179
upperback 2.04553 -3.11663 4.14984
thorax 7.85348 -2.08009 9.24894
lowerneck -1.24035 -5.89754 10.5903
upperneck 2.93088 35.7712 358.646
head 288.144 -109.868 -96.3939
rclavicle 3.37934e-015 -4.92986e-014
rhumerus -39.3828 25.1533 -87.648
rradius 104.118
rwrist 16.2697
rhand -21.3045 10.2509
rfingers 7.12502
rthumb 5.08034 -379.668
lclavicle 3.37934e-015 -4.92986e-014
lhumerus -46.3749 -14.48 98.1167
lradius 78.3153
lwrist 52.319
lhand -18.4392 46.2803
lfingers 7.12502
lthumb 7.84648 -1003.89
rfemur -0.44193 -1.77431 22.0105
rtibia 25.3017
rfoot -15.6713 -13.6414
rtoes -21.7938
lfemur -35.9299 3.40797 -20.1892
ltibia 52.0106
lfoot -15.1508 8.46417
ltoes -11.1599
1814
root -7.22153 17.0897 3.63673 1452.8 63.8428 364.168
lowerback -8.88209 -2.70288 -9.5114
upperback 2.10797 -2.81689 4.33351
thorax 8.00081 -1.96376 9.67053
lowerneck -1.08735 -6.10556 10.3926
upperneck 2.90692 35.451 358.592
head 289.635 -109.751 -97.8078
rclavicle -1.39149e-014 -5.1684e-014
rhumerus -39.013 25.1353 -89.0875
rradius 103.941
rwrist 16.3205
rhand -21.6515 10.1137
rfingers 7.12502
rthumb 4.74525 -379.813
lclavicle -1.39149e-014 -5.1684e-014
lhumerus -46.1334 -12.5622 95.7931
lradius 77.1824
lwrist 51.0207
lhand -17.6251 46.8489
lfingers 7.12502
lthumb 8.63214 -1003.35
rfemur -0.672034 -1.5887 22.1129
rtibia 25.8173
rfoot -15.9326 -13.6192
rtoes -21.5623
lfemur -36.4635 2.95166 -19.8818
ltibia 53.3071
lfoot -14.84 8.80661
ltoes -7.91298
1815
root -7.2381 17.073 3.65379 1452.31 63.3816 363.871
lowerback -9.0963 -2.49205 -9.63267
upperback 2.19503 -2.50629 4.44504
thorax 8.15819 -1.83408 9.92214
lowerneck -0.979952 -6.29512 10.3492
upperneck 2.9011 35.1806 358.586
head 290.374 -109.639 -98.4659
rclavicle -3.12092e-014 9.54166e-015
rhumerus -38.8808 25.0282 -90.8226
rradius 103.68
rwrist 16.3092
rhand -21.9286 10.0248
rfingers 7.12502
rthumb 4.47769 -379.908
lclavicle -3.12092e-014 9.54166e-015
lhumerus -45.8594 -10.7088 93.3375
lradius 75.928
lwrist 48.7077
lhand -16.6614 46.9679
lfingers 7.12502
lthumb 9.56203 -1003.27
rfemur -0.727306 -1.48576 22.2195
rtibia 26.2818
rfoot -16.1236 -13.4841
rtoes -21.658
lfemur -36.8078 2.33951 -19.5149
ltibia 54.3135
lfoot -14.6595 8.88511
ltoes -6.31469
1816
root -7.24382 17.0573 3.67239 1451.45 63.0085 363.241
lowerback -9.24549 -2.25466 -9.55923
upperback 2.30291 -2.19053 4.59426
thorax 8.28861 -1.69271 10.1051
lowerneck -1.00924 -6.45543 10.3345
upperneck 2.86533 34.946 358.573
head 290.509 -109.502 -98.5314
rclavicle 9.323e-014 -2.46493e-014
rhumerus -38.9467 24.8807 -92.5643
rradius 103.557
rwrist 16.3235
rhand -21.9831 9.84361
rfingers 7.12502
rthumb 4.42512 -380.09
lclavicle 9.323e-014 -2.46493e-014
lhumerus -45.6637 -9.0465 90.9183
lradius 74.9277
lwrist 46.6656
lhand -16.9251 46.5252
lfingers 7.12502
lthumb 9.30757 -1003.7
rfemur -0.637714 -1.45613 22.4808
rtibia 26.6913
rfoot -16.2097 -13.3106
rtoes -22.4895
lfemur -37.0095 1.65321 -18.9454
ltibia 55.104
lfoot -14.6185 8.8364
ltoes -5.38492
1817
root -7.24375 17.0418 3.67806 1450.63 63.1191 362.51
lowerback -9.39422 -2.15171 -9.33332
upperback 2.39131 -2.08298 4.85675
thorax 8.44775 -1.64995 10.2908
lowerneck -1.22019 -6.58538 10.1879
upperneck 2.76064 34.7215 358.493
head 290.494 -109.339 -98.4772
rclavicle -2.32578e-014 1.59028e-014
rhumerus -39.0247 24.9339 -94.0288
rradius 103.448
rwrist 16.1937
rhand -21.9218 9.58893
rfingers 7.12502
rthumb 4.48424 -380.344
lclavicle -2.32578e-014 1.59028e-014
lhumerus -45.3667 -7.45272 88.68
lradius 74.1222
lwrist 44.9042
lhand -16.7835 46.2906
lfingers 7.12502
lthumb 9.44426 -1003.94
rfemur -0.701264 -1.77717 22.8212
rtibia 27.1262
rfoot -16.1452 -13.2056
rtoes -23.4696
lfemur -37.4147 0.605779 -18.3353
ltibia 55.8227
lfoot -14.674 8.68551
ltoes -4.81207
1818
root -7.23143 17.0228 3.67262 1450.29 63.6184 362.209
lowerback -9.53849 -2.18311 -9.10219
upperback 2.38394 -2.15634 5.06878
thorax 8.54166 -1.6854 10.3823
lowerneck -1.37818 -6.65817 10.0534
upperneck 2.77808 34.5951 358.484
head 289.94 -109.384 -98.0644
rclavicle -4.75095e-014 -3.57812e-014
rhumerus -39.2498 25.1604 -95.5711
rradius 103.129
rwrist 16.1373
rhand -21.9763 9.30269
rfingers 7.12502
rthumb 4.43163 -380.631
lclavicle -4.75095e-014 -3.57812e-014
lhumerus -45.1757 -5.96134 86.5184
lradius 73.5578
lwrist 44.0323
lhand -16.7288 46.2194
lfingers 7.12502
lthumb 9.497 -1004.01
rfemur -0.825691 -2.48225 22.8985
rtibia 27.5682
rfoot -16.112 -13.0231
rtoes -23.8722
lfemur -37.8338 -0.764947 -18.0103
ltibia 56.2836
lfoot -14.8431 8.48408
ltoes -4.31596
1819
root -7.2026 17.0004 3.67978 1449.88 63.7233 361.978
lowerback -9.68174 -2.07522 -8.96951
upperback 2.38072 -2.02519 5.20723
thorax 8.58849 -1.62071 10.4862
lowerneck -1.4812 -6.75832 10.0054
upperneck 2.82594 34.4601 358.512
head 289.163 -109.422 -97.4081
rclavicle -4.65156e-014 9.54166e-015
rhumerus -39.5923 25.3901 -97.2705
rradius 102.531
rwrist 16.29
rhand -21.861 9.00499
rfingers 7.12502
rthumb 4.54299 -380.926
lclavicle -4.65156e-014 9.54166e-015
lhumerus -45.2507 -4.72951 84.432
lradius 73.332
lwrist 43.5813
lhand -16.7649 46.141
lfingers 7.12502
lthumb 9.46217 -1004.09
rfemur -0.736383 -2.78485 22.9113
rtibia 28.0349
rfoot -16.197 -12.7474
rtoes -23.3968
lfemur -37.6883 -1.6321 -17.7777
ltibia 56.1061
lfoot -15.1354 8.09953
ltoes -3.90754
1820
root -7.16662 16.9804 3.69896 1449.15 63.5425 361.497
lowerback -9.81217 -1.85827 -8.88659
upperback 2.42088 -1.74347 5.37449
thorax 8.64093 -1.48819 10.6825
lowerneck -1.59425 -6.88721 9.96613
upperneck 2.84632 34.2724 358.528
head 288.668 -109.423 -96.9953
rclavicle -1.64991e-014 -5.40694e-014
rhumerus -39.967 25.7022 -98.9112
rradius 101.788
rwrist 16.7269
rhand -21.5136 8.5986
rfingers 7.12502
rthumb 4.8784 -381.325
lclavicle -1.64991e-014 -5.40694e-014
lhumerus -45.3739 -3.56818 82.468
lradius 73.2951
lwrist 42.6501
lhand -16.461 46.4128
lfingers 7.12502
lthumb 9.75544 -1003.83
rfemur -0.520462 -2.657 23.1086
rtibia 28.5211
rfoot -16.2174 -12.573
rtoes -23.0556
lfemur -37.2085 -1.98824 -17.4374
ltibia 55.517
lfoot -15.5455 7.48153
ltoes -3.86689
1821
root -7.12364 16.9607 3.71554 1448.49 63.5537 360.977
lowerback -10.0193 -1.68606 -8.72774
upperback 2.43007 -1.52627 5.53445
thorax 8.71596 -1.38257 10.814
lowerneck -1.76317 -6.93975 10.0423
upperneck 2.90456 34.3219 358.576
head 287.311 -109.551 -95.7567
rclavicle 2.98177e-015 -3.33958e-014
rhumerus -40.289 26.0884 -100.471
rradius 100.906
rwrist 17.3664
rhand -21.2326 8.46056
rfingers 7.12502
rthumb 5.14978 -381.457
lclavicle 2.98177e-015 -3.33958e-014
lhumerus -45.3714 -2.56356 80.6217
lradius 73.28
lwrist 41.3146
lhand -16.0804 46.3045
lfingers 7.12502
lthumb 10.1226 -1003.96
rfemur -0.414513 -2.56989 23.3849
rtibia 29.0293
rfoot -16.1853 -12.6068
rtoes -23.6963
lfemur -36.8189 -2.36245 -17.12
ltibia 54.7645
lfoot -15.8778 6.56369
ltoes -4.99073
1822
root -7.07042 16.9405 3.72928 1448.22 63.7168 360.748
lowerback -10.3561 -1.57942 -8.66845
upperback 2.41605 -1.37486 5.67018
thorax 8.8608 -1.31742 10.9681
lowerneck -1.95734 -7.01744 10.1044
upperneck 2.92531 34.3731 358.596
head 285.821 -109.609 -94.3138
rclavicle 6.4605e-014 -4.77083e-015
rhumerus -40.5713 26.6911 -101.79
rradius 99.8567
rwrist 17.7868
rhand -20.9414 8.77307
rfingers 7.12502
rthumb 5.43091 -381.137
lclavicle 6.4605e-014 -4.77083e-015
lhumerus -45.3687 -1.8201 79.0529
lradius 73.4847
lwrist 39.751
lhand -16.2544 45.8067
lfingers 7.12502
lthumb 9.95476 -1004.45
rfemur -0.475393 -2.59185 23.512
rtibia 29.6774
rfoot -16.2133 -12.6806
rtoes -24.0568
lfemur -36.4584 -2.76309 -17.0238
ltibia 53.7539
lfoot -16.0999 5.3542
ltoes -7.47685
